<svg width="718" height="783" xmlns="http://www.w3.org/2000/svg"><g><path d="M-111.508355489932,-103.19741630461067L-102.81557966955006,953.5979793732986L-107.42019800003618,303.4549629734829Z" fill="#bdf3f9" stroke="#bdf3f9"></path><path d="M-111.508355489932,-103.19741630461067L-107.42019800003618,303.4549629734829L-104.06658202875406,124.19295322615653Z" fill="#f9fff6" stroke="#f9fff6"></path><path d="M-111.508355489932,-103.19741630461067L-104.06658202875406,124.19295322615653L95.07040599826723,-103.54324081912637Z" fill="#fffffb" stroke="#fffffb"></path><path d="M-111.508355489932,-103.19741630461067L95.07040599826723,-103.54324081912637L505.14979837462306,-124.2418507207185Z" fill="#dbf1de" stroke="#dbf1de"></path><path d="M95.07040599826723,-103.54324081912637L-104.06658202875406,124.19295322615653L112.68989177886397,109.20841380022466Z" fill="#effaea" stroke="#effaea"></path><path d="M95.07040599826723,-103.54324081912637L112.68989177886397,109.20841380022466L293.97438316605985,86.42219432629645Z" fill="#d9f1db" stroke="#d9f1db"></path><path d="M95.07040599826723,-103.54324081912637L293.97438316605985,86.42219432629645L297.120831082575,-105.28950502630323Z" fill="#cfecdc" stroke="#cfecdc"></path><path d="M95.07040599826723,-103.54324081912637L297.120831082575,-105.28950502630323L505.14979837462306,-124.2418507207185Z" fill="#bfe6e1" stroke="#bfe6e1"></path><path d="M297.120831082575,-105.28950502630323L293.97438316605985,86.42219432629645L505.14979837462306,-124.2418507207185Z" fill="#b1dfe6" stroke="#b1dfe6"></path><path d="M505.14979837462306,-124.2418507207185L293.97438316605985,86.42219432629645L533.8854076433927,107.3140440043062Z" fill="#a0d3e4" stroke="#a0d3e4"></path><path d="M505.14979837462306,-124.2418507207185L533.8854076433927,107.3140440043062L718.6467692116275,-79.82891420368105Z" fill="#89b3d3" stroke="#89b3d3"></path><path d="M505.14979837462306,-124.2418507207185L718.6467692116275,-79.82891420368105L931.0547463409603,-92.31234573293477Z" fill="#8092bf" stroke="#8092bf"></path><path d="M718.6467692116275,-79.82891420368105L533.8854076433927,107.3140440043062L721.114962240681,118.72808209620416Z" fill="#7da1c4" stroke="#7da1c4"></path><path d="M718.6467692116275,-79.82891420368105L721.114962240681,118.72808209620416L930.5835352325812,78.84048711508512Z" fill="#7e80b0" stroke="#7e80b0"></path><path d="M718.6467692116275,-79.82891420368105L930.5835352325812,78.84048711508512L931.0547463409603,-92.31234573293477Z" fill="#8080a9" stroke="#8080a9"></path><path d="M931.0547463409603,-92.31234573293477L930.5835352325812,78.84048711508512L955.9154099598527,335.3526342473924Z" fill="#7a8093" stroke="#7a8093"></path><path d="M-104.06658202875406,124.19295322615653L-107.42019800003618,303.4549629734829L112.68989177886397,109.20841380022466Z" fill="#ebfeea" stroke="#ebfeea"></path><path d="M112.68989177886397,109.20841380022466L-107.42019800003618,303.4549629734829L97.83349195495248,342.1588378306478Z" fill="#d0f8dc" stroke="#d0f8dc"></path><path d="M112.68989177886397,109.20841380022466L97.83349195495248,342.1588378306478L323.21188292931765,317.2051693405956Z" fill="#b6efcb" stroke="#b6efcb"></path><path d="M112.68989177886397,109.20841380022466L323.21188292931765,317.2051693405956L293.97438316605985,86.42219432629645Z" fill="#baebce" stroke="#baebce"></path><path d="M293.97438316605985,86.42219432629645L323.21188292931765,317.2051693405956L533.8854076433927,107.3140440043062Z" fill="#9cdcd8" stroke="#9cdcd8"></path><path d="M533.8854076433927,107.3140440043062L323.21188292931765,317.2051693405956L500.1245778892189,328.6059457529336Z" fill="#7ed0d3" stroke="#7ed0d3"></path><path d="M533.8854076433927,107.3140440043062L500.1245778892189,328.6059457529336L712.5053195049986,328.30611599609256Z" fill="#66b3c3" stroke="#66b3c3"></path><path d="M533.8854076433927,107.3140440043062L712.5053195049986,328.30611599609256L721.114962240681,118.72808209620416Z" fill="#6ca2b8" stroke="#6ca2b8"></path><path d="M721.114962240681,118.72808209620416L712.5053195049986,328.30611599609256L955.9154099598527,335.3526342473924Z" fill="#5b7ea2" stroke="#5b7ea2"></path><path d="M721.114962240681,118.72808209620416L955.9154099598527,335.3526342473924L930.5835352325812,78.84048711508512Z" fill="#6d8098" stroke="#6d8098"></path><path d="M-107.42019800003618,303.4549629734829L-102.81557966955006,953.5979793732986L-83.63278317265213,762.7247118484229Z" fill="#91b4dd" stroke="#91b4dd"></path><path d="M-107.42019800003618,303.4549629734829L-83.63278317265213,762.7247118484229L-78.33758211694658,533.5327527998015Z" fill="#9ed9f4" stroke="#9ed9f4"></path><path d="M-107.42019800003618,303.4549629734829L-78.33758211694658,533.5327527998015L97.83349195495248,342.1588378306478Z" fill="#b9f1f3" stroke="#b9f1f3"></path><path d="M97.83349195495248,342.1588378306478L-78.33758211694658,533.5327527998015L99.09753195941448,544.3723468668759Z" fill="#9bdfe9" stroke="#9bdfe9"></path><path d="M97.83349195495248,342.1588378306478L99.09753195941448,544.3723468668759L299.75280082784593,550.0902831880376Z" fill="#84d5d8" stroke="#84d5d8"></path><path d="M97.83349195495248,342.1588378306478L299.75280082784593,550.0902831880376L323.21188292931765,317.2051693405956Z" fill="#86dcd8" stroke="#86dcd8"></path><path d="M323.21188292931765,317.2051693405956L299.75280082784593,550.0902831880376L500.1245778892189,328.6059457529336Z" fill="#6acfe1" stroke="#6acfe1"></path><path d="M500.1245778892189,328.6059457529336L299.75280082784593,550.0902831880376L539.1735266335309,508.68377425242215Z" fill="#4dbae3" stroke="#4dbae3"></path><path d="M500.1245778892189,328.6059457529336L539.1735266335309,508.68377425242215L712.5053195049986,328.30611599609256Z" fill="#46a7ce" stroke="#46a7ce"></path><path d="M712.5053195049986,328.30611599609256L539.1735266335309,508.68377425242215L735.3946304228157,539.199998807162Z" fill="#2d88c4" stroke="#2d88c4"></path><path d="M712.5053195049986,328.30611599609256L735.3946304228157,539.199998807162L955.9154099598527,335.3526342473924Z" fill="#3a71ad" stroke="#3a71ad"></path><path d="M955.9154099598527,335.3526342473924L735.3946304228157,539.199998807162L926.951968409121,553.3190528489649Z" fill="#2965a2" stroke="#2965a2"></path><path d="M955.9154099598527,335.3526342473924L926.951968409121,553.3190528489649L973.8012406183407,966.6795231867582Z" fill="#164382" stroke="#164382"></path><path d="M-78.33758211694658,533.5327527998015L-83.63278317265213,762.7247118484229L79.95599817484617,737.506217546761Z" fill="#8eb1d6" stroke="#8eb1d6"></path><path d="M-78.33758211694658,533.5327527998015L79.95599817484617,737.506217546761L99.09753195941448,544.3723468668759Z" fill="#88c1d8" stroke="#88c1d8"></path><path d="M99.09753195941448,544.3723468668759L79.95599817484617,737.506217546761L299.75280082784593,550.0902831880376Z" fill="#72b7c7" stroke="#72b7c7"></path><path d="M299.75280082784593,550.0902831880376L79.95599817484617,737.506217546761L324.835264175199,751.6127916052938Z" fill="#5f9eb9" stroke="#5f9eb9"></path><path d="M299.75280082784593,550.0902831880376L324.835264175199,751.6127916052938L551.6352137178183,720.6076615769416Z" fill="#3d8fc6" stroke="#3d8fc6"></path><path d="M299.75280082784593,550.0902831880376L551.6352137178183,720.6076615769416L539.1735266335309,508.68377425242215Z" fill="#359ad0" stroke="#359ad0"></path><path d="M539.1735266335309,508.68377425242215L551.6352137178183,720.6076615769416L735.3946304228157,539.199998807162Z" fill="#1d79bc" stroke="#1d79bc"></path><path d="M735.3946304228157,539.199998807162L551.6352137178183,720.6076615769416L727.4045951385051,715.261681987904Z" fill="#1356a7" stroke="#1356a7"></path><path d="M735.3946304228157,539.199998807162L727.4045951385051,715.261681987904L926.951968409121,553.3190528489649Z" fill="#17489d" stroke="#17489d"></path><path d="M926.951968409121,553.3190528489649L727.4045951385051,715.261681987904L924.7117248689756,736.9378440594301Z" fill="#123588" stroke="#123588"></path><path d="M926.951968409121,553.3190528489649L924.7117248689756,736.9378440594301L973.8012406183407,966.6795231867582Z" fill="#0c1e6c" stroke="#0c1e6c"></path><path d="M-83.63278317265213,762.7247118484229L-102.81557966955006,953.5979793732986L80.0616465182975,946.0583174508065Z" fill="#807fb3" stroke="#807fb3"></path><path d="M-83.63278317265213,762.7247118484229L80.0616465182975,946.0583174508065L79.95599817484617,737.506217546761Z" fill="#7b88b5" stroke="#7b88b5"></path><path d="M79.95599817484617,737.506217546761L80.0616465182975,946.0583174508065L324.835264175199,751.6127916052938Z" fill="#637fa4" stroke="#637fa4"></path><path d="M324.835264175199,751.6127916052938L80.0616465182975,946.0583174508065L318.90455335378647,947.9543694946915Z" fill="#4f6c97" stroke="#4f6c97"></path><path d="M324.835264175199,751.6127916052938L318.90455335378647,947.9543694946915L503.59823225531727,950.276220291853Z" fill="#305da1" stroke="#305da1"></path><path d="M324.835264175199,751.6127916052938L503.59823225531727,950.276220291853L551.6352137178183,720.6076615769416Z" fill="#265fab" stroke="#265fab"></path><path d="M551.6352137178183,720.6076615769416L503.59823225531727,950.276220291853L729.1090119676664,940.9465707605705Z" fill="#0b318d" stroke="#0b318d"></path><path d="M551.6352137178183,720.6076615769416L729.1090119676664,940.9465707605705L727.4045951385051,715.261681987904Z" fill="#093290" stroke="#093290"></path><path d="M727.4045951385051,715.261681987904L729.1090119676664,940.9465707605705L924.7117248689756,736.9378440594301Z" fill="#09127b" stroke="#09127b"></path><path d="M924.7117248689756,736.9378440594301L729.1090119676664,940.9465707605705L973.8012406183407,966.6795231867582Z" fill="#030060" stroke="#030060"></path><path d="M-102.81557966955006,953.5979793732986L973.8012406183407,966.6795231867582L503.59823225531727,950.276220291853Z" fill="#1f5191" stroke="#1f5191"></path><path d="M-102.81557966955006,953.5979793732986L503.59823225531727,950.276220291853L318.90455335378647,947.9543694946915Z" fill="#4d6c8b" stroke="#4d6c8b"></path><path d="M-102.81557966955006,953.5979793732986L318.90455335378647,947.9543694946915L80.0616465182975,946.0583174508065Z" fill="#677691" stroke="#677691"></path><path d="M503.59823225531727,950.276220291853L973.8012406183407,966.6795231867582L729.1090119676664,940.9465707605705Z" fill="#000e6a" stroke="#000e6a"></path></g></svg>